<svg xmlns="http://www.w3.org/2000/svg" width="20" height="20" fill="none"><g clip-path="url(#a)"><path fill="#4299E1" d="M3.598 8.465h11.111v4.683H3.598z"/><ellipse cx="3.651" cy="10.806" fill="#4299E1" rx="2.381" ry="2.341"/><ellipse cx="14.656" cy="10.806" fill="#4299E1" rx="2.381" ry="2.341"/><g filter="url(#b)"><path fill="#4299E1" d="m5.82 13.313.768-5.762 4.55.707-.767 5.761z"/></g><path fill="#4299E1" d="M5.204 17.466 7.532 0l4.676.726L9.88 18.192z"/><ellipse cx="7.566" cy="17.659" fill="#4299E1" rx="2.381" ry="2.341"/><g filter="url(#c)"><path fill="#4299E1" d="M6.878 0h5.291v4.683H6.878z"/></g><ellipse cx="17.619" cy="2.355" fill="#4299E1" rx="2.381" ry="2.341"/><ellipse cx="2.381" cy="2.355" fill="#4299E1" rx="2.381" ry="2.341"/><path fill="#4299E1" d="M2.434.014h14.921v4.683H2.434z"/></g><defs><filter id="b" width="29.318" height="30.468" x="-6.18" y="-4.449" color-interpolation-filters="sRGB" filterUnits="userSpaceOnUse"><feFlood flood-opacity="0" result="BackgroundImageFix"/><feColorMatrix in="SourceAlpha" result="hardAlpha" values="0 0 0 0 0 0 0 0 0 0 0 0 0 0 0 0 0 0 127 0"/><feMorphology in="SourceAlpha" operator="dilate" radius="2" result="effect1_dropShadow_308_711"/><feOffset/><feGaussianBlur stdDeviation="5"/><feComposite in2="hardAlpha" operator="out"/><feColorMatrix values="0 0 0 0 0 0 0 0 0 0 0 0 0 0 0 0 0 0 0.5 0"/><feBlend in2="BackgroundImageFix" result="effect1_dropShadow_308_711"/><feBlend in="SourceGraphic" in2="effect1_dropShadow_308_711" result="shape"/></filter><filter id="c" width="25.291" height="24.683" x="-3.122" y="-5" color-interpolation-filters="sRGB" filterUnits="userSpaceOnUse"><feFlood flood-opacity="0" result="BackgroundImageFix"/><feColorMatrix in="SourceAlpha" result="hardAlpha" values="0 0 0 0 0 0 0 0 0 0 0 0 0 0 0 0 0 0 127 0"/><feOffset dy="5"/><feGaussianBlur stdDeviation="5"/><feComposite in2="hardAlpha" operator="out"/><feColorMatrix values="0 0 0 0 0 0 0 0 0 0 0 0 0 0 0 0 0 0 0.5 0"/><feBlend in2="BackgroundImageFix" result="effect1_dropShadow_308_711"/><feBlend in="SourceGraphic" in2="effect1_dropShadow_308_711" result="shape"/></filter><clipPath id="a"><path fill="#fff" d="M0 0h20v20H0z"/></clipPath></defs></svg>