<svg xmlns="http://www.w3.org/2000/svg" width="35" height="35" fill="none"><g clip-path="url(#a)"><path fill="#4299E1" d="M6.296 14.814H25.74v8.194H6.296z"/><ellipse cx="6.389" cy="18.911" fill="#4299E1" rx="4.167" ry="4.097"/><ellipse cx="25.648" cy="18.911" fill="#4299E1" rx="4.167" ry="4.097"/><g filter="url(#b)"><path fill="#4299E1" d="m10.185 23.297 1.344-10.082 7.964 1.237-1.344 10.082z"/></g><path fill="#4299E1" d="M9.106 30.565 13.181 0l8.183 1.271-4.075 30.565z"/><ellipse cx="13.241" cy="30.903" fill="#4299E1" rx="4.167" ry="4.097"/><g filter="url(#c)"><path fill="#4299E1" d="M12.037 0h9.259v8.194h-9.259z"/></g><ellipse cx="30.833" cy="4.121" fill="#4299E1" rx="4.167" ry="4.097"/><ellipse cx="4.167" cy="4.121" fill="#4299E1" rx="4.167" ry="4.097"/><path fill="#4299E1" d="M4.259.024H30.37v8.194H4.259z"/></g><defs><filter id="b" width="33.307" height="35.319" x="-1.815" y="1.215" color-interpolation-filters="sRGB" filterUnits="userSpaceOnUse"><feFlood flood-opacity="0" result="BackgroundImageFix"/><feColorMatrix in="SourceAlpha" result="hardAlpha" values="0 0 0 0 0 0 0 0 0 0 0 0 0 0 0 0 0 0 127 0"/><feMorphology in="SourceAlpha" operator="dilate" radius="2" result="effect1_dropShadow_305_775"/><feOffset/><feGaussianBlur stdDeviation="5"/><feComposite in2="hardAlpha" operator="out"/><feColorMatrix values="0 0 0 0 0 0 0 0 0 0 0 0 0 0 0 0 0 0 0.5 0"/><feBlend in2="BackgroundImageFix" result="effect1_dropShadow_305_775"/><feBlend in="SourceGraphic" in2="effect1_dropShadow_305_775" result="shape"/></filter><filter id="c" width="29.259" height="28.194" x="2.037" y="-5" color-interpolation-filters="sRGB" filterUnits="userSpaceOnUse"><feFlood flood-opacity="0" result="BackgroundImageFix"/><feColorMatrix in="SourceAlpha" result="hardAlpha" values="0 0 0 0 0 0 0 0 0 0 0 0 0 0 0 0 0 0 127 0"/><feOffset dy="5"/><feGaussianBlur stdDeviation="5"/><feComposite in2="hardAlpha" operator="out"/><feColorMatrix values="0 0 0 0 0 0 0 0 0 0 0 0 0 0 0 0 0 0 0.5 0"/><feBlend in2="BackgroundImageFix" result="effect1_dropShadow_305_775"/><feBlend in="SourceGraphic" in2="effect1_dropShadow_305_775" result="shape"/></filter><clipPath id="a"><path fill="#fff" d="M0 0h35v35H0z"/></clipPath></defs></svg>