<svg xmlns="http://www.w3.org/2000/svg" width="20" height="20" fill="none"><g clip-path="url(#a)"><path fill="#E9FFF9" d="M3.598 8.465h11.111v4.683H3.598z"/><ellipse cx="3.651" cy="10.806" fill="#E9FFF9" rx="2.381" ry="2.341"/><ellipse cx="14.656" cy="10.806" fill="#E9FFF9" rx="2.381" ry="2.341"/><g filter="url(#b)"><path fill="#E9FFF9" d="m5.82 13.312.768-5.76 4.55.706-.767 5.761z"/></g><path fill="#E9FFF9" d="M5.204 17.466 7.532 0l4.676.726L9.88 18.192z"/><ellipse cx="7.566" cy="17.659" fill="#E9FFF9" rx="2.381" ry="2.341"/><g filter="url(#c)"><path fill="#E9FFF9" d="M6.878 0h5.291v4.683H6.878z"/></g><ellipse cx="17.619" cy="2.355" fill="#E9FFF9" rx="2.381" ry="2.341"/><ellipse cx="2.381" cy="2.355" fill="#E9FFF9" rx="2.381" ry="2.341"/><path fill="#E9FFF9" d="M2.434.014h14.921v4.683H2.434z"/></g><defs><filter id="b" width="49.318" height="50.468" x="-16.18" y="-14.449" color-interpolation-filters="sRGB" filterUnits="userSpaceOnUse"><feFlood flood-opacity="0" result="BackgroundImageFix"/><feColorMatrix in="SourceAlpha" result="hardAlpha" values="0 0 0 0 0 0 0 0 0 0 0 0 0 0 0 0 0 0 127 0"/><feMorphology in="SourceAlpha" operator="dilate" radius="2" result="effect1_dropShadow_308_696"/><feOffset/><feGaussianBlur stdDeviation="10"/><feComposite in2="hardAlpha" operator="out"/><feColorMatrix values="0 0 0 0 0 0 0 0 0 0 0 0 0 0 0 0 0 0 0.3 0"/><feBlend in2="BackgroundImageFix" result="effect1_dropShadow_308_696"/><feBlend in="SourceGraphic" in2="effect1_dropShadow_308_696" result="shape"/></filter><filter id="c" width="29.291" height="28.683" x="-5.122" y="-7" color-interpolation-filters="sRGB" filterUnits="userSpaceOnUse"><feFlood flood-opacity="0" result="BackgroundImageFix"/><feColorMatrix in="SourceAlpha" result="hardAlpha" values="0 0 0 0 0 0 0 0 0 0 0 0 0 0 0 0 0 0 127 0"/><feOffset dy="5"/><feGaussianBlur stdDeviation="6"/><feComposite in2="hardAlpha" operator="out"/><feColorMatrix values="0 0 0 0 0 0 0 0 0 0 0 0 0 0 0 0 0 0 0.3 0"/><feBlend in2="BackgroundImageFix" result="effect1_dropShadow_308_696"/><feBlend in="SourceGraphic" in2="effect1_dropShadow_308_696" result="shape"/></filter><clipPath id="a"><path fill="#fff" d="M0 0h20v20H0z"/></clipPath></defs></svg>