<svg xmlns="http://www.w3.org/2000/svg" width="35" height="35" fill="none"><path fill="#E9FFF9" d="M7.296 14.814H26.74v8.194H7.296z"/><ellipse cx="7.389" cy="18.911" fill="#E9FFF9" rx="4.167" ry="4.097"/><ellipse cx="26.648" cy="18.911" fill="#E9FFF9" rx="4.167" ry="4.097"/><g filter="url(#a)"><path fill="#E9FFF9" d="m11.185 23.297 1.344-10.082 7.964 1.237-1.344 10.082z"/></g><path fill="#E9FFF9" d="M10.106 30.565 14.181 0l8.183 1.271-4.075 30.565z"/><ellipse cx="14.241" cy="30.903" fill="#E9FFF9" rx="4.167" ry="4.097"/><g filter="url(#b)"><path fill="#E9FFF9" d="M13.037 0h9.259v8.194h-9.259z"/></g><ellipse cx="31.833" cy="4.121" fill="#E9FFF9" rx="4.167" ry="4.097"/><ellipse cx="5.167" cy="4.121" fill="#E9FFF9" rx="4.167" ry="4.097"/><path fill="#E9FFF9" d="M5.259.024H31.37v8.194H5.259z"/><defs><filter id="a" width="53.307" height="55.319" x="-10.815" y="-8.785" color-interpolation-filters="sRGB" filterUnits="userSpaceOnUse"><feFlood flood-opacity="0" result="BackgroundImageFix"/><feColorMatrix in="SourceAlpha" result="hardAlpha" values="0 0 0 0 0 0 0 0 0 0 0 0 0 0 0 0 0 0 127 0"/><feMorphology in="SourceAlpha" operator="dilate" radius="2" result="effect1_dropShadow_305_793"/><feOffset/><feGaussianBlur stdDeviation="10"/><feComposite in2="hardAlpha" operator="out"/><feColorMatrix values="0 0 0 0 0 0 0 0 0 0 0 0 0 0 0 0 0 0 0.3 0"/><feBlend in2="BackgroundImageFix" result="effect1_dropShadow_305_793"/><feBlend in="SourceGraphic" in2="effect1_dropShadow_305_793" result="shape"/></filter><filter id="b" width="33.259" height="32.194" x="1.037" y="-7" color-interpolation-filters="sRGB" filterUnits="userSpaceOnUse"><feFlood flood-opacity="0" result="BackgroundImageFix"/><feColorMatrix in="SourceAlpha" result="hardAlpha" values="0 0 0 0 0 0 0 0 0 0 0 0 0 0 0 0 0 0 127 0"/><feOffset dy="5"/><feGaussianBlur stdDeviation="6"/><feComposite in2="hardAlpha" operator="out"/><feColorMatrix values="0 0 0 0 0 0 0 0 0 0 0 0 0 0 0 0 0 0 0.3 0"/><feBlend in2="BackgroundImageFix" result="effect1_dropShadow_305_793"/><feBlend in="SourceGraphic" in2="effect1_dropShadow_305_793" result="shape"/></filter></defs></svg>